inDegrees=no
num_controls=7
num_derivatives=13
num_iterations=221
num_multipliers=7
num_parameters=0
num_slacks=7
num_states=26
objective=6.116636
objective_accelerations=0.518463
objective_balance=0.035316
objective_effort=0.482930
objective_height=5.055431
objective_ligament=0.024497
solver_duration=1902.922794
status=Solve_Succeeded
success=true
DataType=double
version=3
OpenSimVersion=4.4-2022-07-23-0e9fedc
endheader
time	/jointset/ground_pelvis/pelvis_tilt/value	/jointset/ground_pelvis/pelvis_tx/value	/jointset/ground_pelvis/pelvis_ty/value	/jointset/hip_r/hip_flexion_r/value	/jointset/hip_r/hip_adduction_r/value	/jointset/hip_r/hip_rotation_r/value	/jointset/back/lumbar_extension/value	/jointset/patellofemoral_r/patellar_flexion_r/value	/jointset/knee_r/knee_flexion_r/value	/jointset/knee_r/knee_adduction_r/value	/jointset/knee_r/knee_rotation_r/value	/jointset/ankle_r/ankle_angle_r/value	/jointset/subtalar_r/subtalar_angle_r/value	/jointset/ground_pelvis/pelvis_tilt/speed	/jointset/ground_pelvis/pelvis_tx/speed	/jointset/ground_pelvis/pelvis_ty/speed	/jointset/hip_r/hip_flexion_r/speed	/jointset/hip_r/hip_adduction_r/speed	/jointset/hip_r/hip_rotation_r/speed	/jointset/back/lumbar_extension/speed	/jointset/patellofemoral_r/patellar_flexion_r/speed	/jointset/knee_r/knee_flexion_r/speed	/jointset/knee_r/knee_adduction_r/speed	/jointset/knee_r/knee_rotation_r/speed	/jointset/ankle_r/ankle_angle_r/speed	/jointset/subtalar_r/subtalar_angle_r/speed	/forceset/tau_hip_flexion_r	/forceset/tau_hip_adduction_r	/forceset/tau_hip_rotation_r	/forceset/tau_knee_flexion_r	/forceset/tau_ankle_angle_r	/forceset/tau_subtalar_angle_r	/forceset/tau_lumbar_extension	lambda_cid13_p0	lambda_cid14_p0	lambda_cid14_p1	lambda_cid14_p2	lambda_cid14_p3	lambda_cid14_p4	lambda_cid14_p5	/jointset/ground_pelvis/pelvis_tilt/accel	/jointset/ground_pelvis/pelvis_tx/accel	/jointset/ground_pelvis/pelvis_ty/accel	/jointset/hip_r/hip_flexion_r/accel	/jointset/hip_r/hip_adduction_r/accel	/jointset/hip_r/hip_rotation_r/accel	/jointset/back/lumbar_extension/accel	/jointset/patellofemoral_r/patellar_flexion_r/accel	/jointset/knee_r/knee_flexion_r/accel	/jointset/knee_r/knee_adduction_r/accel	/jointset/knee_r/knee_rotation_r/accel	/jointset/ankle_r/ankle_angle_r/accel	/jointset/subtalar_r/subtalar_angle_r/accel	gamma_cid13_p0	gamma_cid14_p0	gamma_cid14_p1	gamma_cid14_p2	gamma_cid14_p3	gamma_cid14_p4	gamma_cid14_p5
0	-0.006516716107062755	0.09626122179675138	0.9427240276326185	0.1762555651711513	-0.2321527124049914	-0.2616407492493484	-0.0385979564078546	0.07317816487761872	0.07317816487761825	0.1745329251994329	0.1745329041039473	0.0324735960626065	-0.003451809650475023	0	0	0	0	0	0	0	0	0	0	0	0	0	0.2303670369505204	-0.1897994008141113	-0.04610191580902824	-0.420624783457575	0.4217816977968505	-0.1280963163626295	-0.1246114473286966	-39.07619912242033	86.52668456570949	-30.79813554836402	-5.691308515915678	-40.62087224758829	-677.4558017624386	75.7041470951395	-1.867225555230335	-0.9425501793265461	-0.6093304897402341	8.634163543112845	-0.10479005509429	2.591112667413226	-4.905248753536455	9.411399460962834	9.41139946096755	-2.322537118458833	0.1712990019753493	3.35119744243985	0.6358117894658482	7.831223827469863e-08	1.837734174418649e-08	-6.126297596188588e-07	1.634290238138261e-07	4.449881535226722e-08	-1.250214969077539e-08	-2.972352764866663e-07
0.01	-0.006603472294723764	0.09621477452778274	0.9426947176415486	0.1766727452001969	-0.2321569023531258	-0.2615037365169929	-0.03884561173422931	0.0736354003937653	0.07363540039376912	0.1744173836547578	0.1745302444247946	0.03263701407251799	-0.003419960823539254	-0.01726319361272095	-0.009252210890030393	-0.005848956618061062	0.08305816000973515	-0.0008753889348672635	0.02726631942711737	-0.04919502531062569	0.09105993165364218	0.09105993165365837	-0.02291179241440135	-0.0005122071849736213	0.03252747994383482	0.006295327060723623	0.224501429922059	-0.1943975963557079	-0.04459847511378064	-0.4125676013639352	0.4089205340846114	-0.1191818811855249	-0.1199258734973557	-39.09153769529084	82.71908162823719	-27.63329554455596	-6.150163661121135	-38.39749087655716	-677.8269060820255	81.31968025840064	-1.642658063457508	-0.9109612084692413	-0.5707245088778991	8.084966131759373	-0.08458702448182864	2.774000260278076	-4.876223425184536	8.895198618693332	8.89519861869271	-2.245956460749305	-0.1594699828310845	3.180116047651886	0.6151502875541621	1.07228459585162e-07	9.300454585169116e-09	-8.477911080433808e-07	1.51031833665819e-07	7.770814455035478e-08	-1.778996207364099e-07	-3.555670777764089e-07
0.02	-0.006860218778343903	0.09607692421698828	0.9426073088320902	0.1779091716097122	-0.2321709809329681	-0.2610981388543817	-0.03957513611478171	0.07499161694667933	0.07499161694668026	0.1740786281031813	0.1745230647929257	0.03312102543732735	-0.003327407301360537	-0.03399805919202357	-0.01828060836516499	-0.01161976367769078	0.1638492760936912	-0.001977726341688915	0.05371698605091681	-0.09637381083560873	0.1797962073524199	0.1797962073524244	-0.0446418311415432	-0.0009039905338396612	0.06411867097953319	0.01214093904858921	0.2186358228935971	-0.1989957918973063	-0.04309503441858546	-0.4045104192702932	0.3960593703723688	-0.1102674460084221	-0.1152402996660106	-39.13693687335976	78.99253728899988	-24.47200933591698	-6.588180554332268	-36.37168804817019	-676.9788000959398	86.72607705453915	-1.761559948546685	-0.8977874963473662	-0.5937005780539655	8.180754757957015	-0.1501797494851682	2.427982106749563	-4.502000796407924	8.94666826998994	8.946668269989079	-2.086186381006924	0.1953837691969424	3.163939660812581	0.5458687748942466	1.361446808956253e-07	2.235674261517389e-10	-1.082952456467903e-06	1.38634643517812e-07	1.109174737484423e-07	-3.432970917820445e-07	-4.138988790661515e-07
0.03	-0.007282014090189578	0.09584980929057325	0.9424623473392296	0.179942930690701	-0.2321971359357537	-0.2604336563146658	-0.04076620701302445	0.0772242465698446	0.07722424656984668	0.1735285300908532	0.1745139912762151	0.03391630578345124	-0.003178522681740878	-0.05026620645695901	-0.02711325885965362	-0.01737532604878073	0.2425302308551681	-0.003273881453573671	0.07904781941997362	-0.1415295878396659	0.2663380408369476	0.2663380408369462	-0.06519039801258845	-0.0009210863990766552	0.09477099285296735	0.01757749072999302	0.2120685064075954	-0.191519519406879	-0.04140700109813148	-0.3962424480281412	0.38472171057442	-0.1116727161328971	-0.1100951144958085	-39.21121827782698	75.33723094424214	-25.74025320066427	-6.365522286645681	-33.99265366504189	-676.4323366050138	83.08237178766558	-1.54521388079832	-0.8716137995495343	-0.566972067483144	7.655920834721254	-0.1225559404786774	2.565928752668576	-4.475749006409413	8.44916207526836	8.449162075268015	-2.011243953010574	-0.1017464928647875	2.990940240810827	0.5336197358578576	1.501502457952041e-07	-9.005086397408544e-09	-1.2013163722049e-06	1.218287784549939e-07	1.320853684234269e-07	-4.674686281174727e-07	-4.389622481444939e-07
0.04	-0.007863645227750087	0.09553524586450338	0.942259732622489	0.1827523303192002	-0.2322368969993462	-0.2595198064811234	-0.04239951225210892	0.08031053876537768	0.08031053876537828	0.1727785359872398	0.1745044487551384	0.03501312170634965	-0.002977058271088304	-0.06596522433515432	-0.03577030829613172	-0.02315040845372445	0.3189773855957706	-0.004698938503001197	0.103590444816424	-0.1848206790039159	0.350528721824842	0.3505287218248391	-0.08462104939792373	-0.0009977914035430926	0.1244257863344818	0.02265689725517341	0.2055011899215924	-0.1840432469164495	-0.03971896777771959	-0.387974476785976	0.3733840507764752	-0.1130779862573685	-0.1049499293256126	-39.31281053409133	71.75640240248971	-27.01375976501056	-6.12111738248755	-31.79785834225401	-674.7686933374119	79.24195336227268	-1.647734071198674	-0.8626672847452428	-0.5976045848247222	7.733994753782107	-0.1759601369937206	2.270340512228239	-4.129063628446476	8.47643777066329	8.476437770663294	-1.86260328386493	0.1834619413510917	2.96443398242866	0.4744397436495684	1.638483744801255e-07	-1.823686943054704e-08	-1.317272093453495e-06	1.049320128784684e-07	1.53004986097935e-07	-5.907901451805255e-07	-4.63339670166931e-07
0.05	-0.00859997300994763	0.09513505929631115	0.941999048305677	0.1863158800141589	-0.2322916037128726	-0.2583660797199748	-0.04445601015746301	0.0842278402996733	0.08422784029967535	0.1718400676546155	0.1744954845695612	0.03640178249312172	-0.00272654866675421	-0.0812127384095547	-0.04422854800899964	-0.029002538440081	0.3933595510371039	-0.006252438784606625	0.1270106995505014	-0.2261767633106038	0.4325398125964732	0.4325398125964712	-0.1028879684371826	-0.0008093758238971042	0.153150126859404	0.02740052595182682	0.1989518081631139	-0.1813364471221245	-0.03792106910748588	-0.3809711545086746	0.3624259154933669	-0.109972488315184	-0.09979930467837515	-39.43987233528077	68.44499361076855	-26.31263976781902	-6.155458445609404	-29.90963028828327	-673.5249317522035	79.3756628795017	-1.450107451318509	-0.8316029444718348	-0.5815488898176451	7.234378572554588	-0.1467154341751803	2.356287440869063	-4.093560018336421	8.004645984318524	8.004645984318707	-1.781237867352699	-0.06554961635603698	2.803025718299174	0.4674547191319741	1.656784813044458e-07	-2.402161691885381e-08	-1.325595443964739e-06	1.016868317654947e-07	1.620102801842974e-07	-6.69858540729561e-07	-4.718824212067586e-07
0.06	-0.009486145408039506	0.09465145020500744	0.9416793363521462	0.1906120615901811	-0.2323621795213015	-0.2569824665141111	-0.04691700474319502	0.08895349299246917	0.08895349299246978	0.1707244298009157	0.1744879883432453	0.03807300501129813	-0.002429976718161812	-0.09593414751427061	-0.05245481291842938	-0.03495593579749403	0.4655037618082611	-0.007872757483460949	0.1495677337594418	-0.2657200150795515	0.5121989535243232	0.512198953524324	-0.1200549536122946	-0.0007041995493462594	0.1809381326153339	0.03186936610683014	0.1924024264046359	-0.1786296473277998	-0.03612317043727425	-0.373967832231369	0.3514677802102588	-0.1068669903729997	-0.09464868003113744	-39.59026415699005	65.20095257498218	-25.61283827748693	-6.174608842406327	-28.19058584072592	-671.2744102430768	79.33771407564602	-1.542513077261788	-0.8162723240575914	-0.6178580590360195	7.286403819746871	-0.1893238204434978	2.097696407200814	-3.766497120898446	8.006047801907052	8.006047801907398	-1.642616511035571	0.1668140803320894	2.77716702863024	0.4194820353195569	1.670088819451619e-07	-2.966122606843082e-08	-1.329386905181778e-06	9.901645420888105e-08	1.705139185406326e-07	-7.470636469516905e-07	-4.797584492578447e-07
